<?xml version="1.0" encoding="UTF-8"?>
<svg width="147px" height="81px" viewBox="0 0 147 81" version="1.1" xmlns="http://www.w3.org/2000/svg" xmlns:xlink="http://www.w3.org/1999/xlink">
    <!-- Generator: Sketch 52.4 (67378) - http://www.bohemiancoding.com/sketch -->
    <title>Group 15 Copy</title>
    <desc>Created with Sketch.</desc>
    <defs>
        <polygon id="path-1" points="0.059745314 0.0134018929 43.6939269 0.0134018929 43.6939269 58.375483 0.059745314 58.375483"></polygon>
        <polygon id="path-3" points="0 0.0162689275 41.0430837 0.0162689275 41.0430837 39.7771477 0 39.7771477"></polygon>
    </defs>
    <g id="Page-1" stroke="none" stroke-width="1" fill="none" fill-rule="evenodd">
        <g id="Group-15-Copy">
            <path d="M34.1398303,46.1184976 L25.1574074,55.1927989 C26.1589161,55.8156946 27.2205772,56.3546967 28.3393687,56.8076051 C30.9920464,57.8817959 33.7212098,58.4239513 36.4789384,58.4262246 C39.2360914,58.428058 41.94518,57.9145027 44.5601545,56.8902521 C47.1759206,55.8660015 49.4315637,54.2770088 51.345,52.1963141 C52.8167912,50.5954414 54.0845965,48.9205016 55.0963945,47.183815 C56.1075448,45.4480083 56.8275029,43.5367877 56.9293159,41.4756732 C56.9932098,40.1814815 56.5290434,39.0617506 55.849091,38.1616538 C55.1693545,37.2621437 54.3349917,36.6143146 53.3445637,36.2343731 C52.3538479,35.8543583 51.3033395,35.7568246 50.2177181,35.9467587 C49.1316651,36.1362527 48.1015912,36.636388 47.213192,37.4896246 C46.7516878,37.9323396 46.4173959,38.4244815 46.1898097,38.90731 C45.9622955,39.3901385 45.7542804,39.8986338 45.5693622,40.4214291 C45.3846597,40.9440045 45.1244071,41.5089666 44.7935689,42.0926289 C44.4628026,42.6757044 43.9592781,43.3173735 43.3058043,43.9836827 C40.9156097,46.4211454 37.8538813,47.1329948 34.1398303,46.1184976" id="Fill-1" fill="#FFFFFF"></path>
            <path d="M73.0791746,29.4094319 C74.0100187,28.4740734 75.075903,27.734536 76.2774937,27.1912662 C77.4786403,26.647922 78.7399034,26.3762871 80.061357,26.3762871 C81.3827367,26.3762871 82.6588068,26.647922 83.8899376,27.1912662 C85.1211424,27.734536 86.202426,28.4740734 87.1337144,29.4094319 C88.0644104,30.3447904 88.7998758,31.4313301 89.3405546,32.6686787 C89.8810853,33.9058786 90.1514618,35.1886858 90.1514618,36.5166538 C90.1514618,37.9650013 89.8810853,39.3078494 89.3405546,40.5451981 C88.7998758,41.7829932 88.0791434,42.8540575 87.1785056,43.7592096 C86.2773496,44.6648081 85.2113913,45.3742134 83.9801865,45.8872023 C82.7490557,46.4002657 81.442409,46.6564254 80.061357,46.6564254 C78.8000199,46.6564254 77.5689632,46.3848649 76.3672244,45.8415207 C75.1661519,45.2983997 74.1002676,44.5741143 73.1689792,43.6689623 C72.2382091,42.7633638 71.4874185,41.6921506 70.9167554,40.4549507 C70.3466106,39.2177508 70.0609089,37.9045884 70.0609089,36.5166538 C70.0609089,35.1886858 70.3312854,33.9058786 70.8718901,32.6686787 C71.4124949,31.4313301 72.1479603,30.3447904 73.0791746,29.4094319 M68.0790616,18.2281329 C64.5355164,20.6427149 61.892535,23.8111192 60.1508578,27.734536 C59.5501364,29.1229914 59.0849735,30.5411324 58.7544805,31.9894799 C58.4239875,33.4383482 58.2592593,34.9473317 58.2592593,36.5166538 C58.2592593,38.0860503 58.4239875,39.5949595 58.7544805,41.043307 C59.0849735,42.4916545 59.5501364,43.9103163 60.1508578,45.2983997 C61.892535,49.1611804 64.5355164,52.314779 68.0790616,54.7595675 C71.6226067,57.2038353 75.6466401,58.4262295 80.1510877,58.4262295 C81.8932832,58.4262295 83.5446376,58.2452884 85.1063354,57.8828853 C86.6078426,57.5210774 88.0791434,57.0080885 89.5210523,56.3437697 C89.7612964,56.2233902 90.0014665,56.0875356 90.2416366,55.9362801 C90.4819547,55.7857686 90.7522571,55.6498396 91.0526178,55.5287906 C92.3139549,57.4605901 93.9954416,58.4262295 96.0976701,58.4262295 C97.5991773,58.4262295 98.9506893,57.8526788 100.151762,56.7061727 C101.352908,55.5590714 101.953704,54.1711368 101.953704,52.5413274 L101.953704,36.5166538 C101.953704,33.7403383 101.45789,31.0992822 100.46693,28.5945272 C99.4759688,26.0897722 98.1244568,23.8567265 96.4129119,21.8947204 C94.7012929,19.9333096 92.6591809,18.318901 90.2865759,17.0513459 C87.913971,15.7838652 85.3767118,14.9991669 82.6742061,14.6973999 C82.2533162,14.6368382 81.8478256,14.6065574 81.4577343,14.6065574 L80.1510877,14.6065574 C75.6466401,14.6065574 71.6226067,15.814146 68.0790616,18.2281329" id="Fill-3" fill="#FFFFFF"></path>
            <g id="Group-7" transform="translate(103.277778, 1.327869)">
                <mask id="mask-2" fill="white">
                    <use xlink:href="#path-1"></use>
                </mask>
                <g id="Clip-6"></g>
                <path d="M18.0084028,26.7662905 C19.2378358,26.2176411 20.5427545,25.9416224 21.9219759,25.9416224 C23.2415334,25.9416224 24.5010572,26.2014534 25.7004734,26.7207391 C26.8998896,27.239799 27.9648954,27.9577037 28.894382,28.8735499 C29.8237946,29.7895467 30.5599462,30.8741213 31.0986965,32.1262195 C31.6375207,33.3782424 31.9085593,34.7371792 31.9085593,36.2034818 C31.9085593,37.6079701 31.6375207,38.921732 31.0986965,40.1427348 C30.5593547,41.363587 29.8227596,42.4492909 28.894382,43.3952538 C27.9654869,44.3412919 26.8998896,45.0903673 25.7004734,45.6400708 C24.5010572,46.1898496 23.2415334,46.464739 21.9219759,46.464739 C20.5427545,46.464739 19.2378358,46.1887202 18.0084028,45.6400708 C16.7788959,45.0914214 15.6980683,44.3568772 14.7696907,43.4414828 C13.8402042,42.526013 13.1041265,41.4409114 12.5653763,40.1888885 C12.026626,38.9368656 11.7555873,37.6079701 11.7555873,36.2034818 C11.7555873,34.859528 12.026626,33.5613514 12.5653763,32.3093285 C13.1041265,31.057155 13.8407217,29.9570704 14.7696907,29.0110323 C15.6986598,28.0656718 16.7788959,27.3149399 18.0084028,26.7662905 M13.5549704,15.817697 C10.9157077,17.0085079 8.59176947,18.6122928 6.58249043,20.6278471 C4.57328531,22.6433262 2.9837243,24.9955842 1.81439887,27.6827391 C0.644925564,30.3699692 0.059745314,33.2101917 0.059745314,36.2034818 C0.059745314,39.2573064 0.660821174,42.1286996 1.85912837,44.8154027 C3.05802704,47.5020304 4.66400119,49.8553426 6.67268877,51.8702946 C8.68137635,53.8847948 11.0064235,55.4751779 13.6450948,56.6348181 C16.282731,57.7944583 19.0427265,58.375483 21.9219759,58.375483 C24.8010776,58.375483 27.5605555,57.7788729 30.1993007,56.5886644 C32.836863,55.3983805 35.1625016,53.7934662 37.1717067,51.7785142 C39.1798028,49.7635622 40.7705468,47.4113041 41.9398722,44.7242246 C43.1092716,42.0369192 43.6939343,39.1945133 43.6939343,36.2034818 L43.6939343,6.05998961 C43.6939343,4.29041271 43.1092716,2.837512 41.9398722,1.70791313 C40.7705468,0.578238972 39.4055205,0.0134018929 37.8459763,0.0134018929 C37.0662042,0.0134018929 36.3165968,0.165867247 35.5968584,0.471324996 C34.8772678,0.776858036 34.2477277,1.20421278 33.7079424,1.75406684 C33.1680092,2.30384561 32.7324695,2.94487773 32.4030237,3.67776551 C32.073504,4.410578 31.9085593,5.17471176 31.9085593,5.96820923 L31.9085593,16.5049581 C28.8495786,14.8556218 25.5206681,14.0308783 21.9219759,14.0308783 C18.9832843,14.0308783 16.1942331,14.6268861 13.5549704,15.817697" id="Fill-5" fill="#FFFFFF" mask="url(#mask-2)"></path>
            </g>
            <g id="Group-10">
                <mask id="mask-4" fill="white">
                    <use xlink:href="#path-3"></use>
                </mask>
                <g id="Clip-9"></g>
                <path d="M6.34351654,31.2358087 C12.7510174,19.4405322 22.0833933,11.0722976 34.0399038,5.93367319 C34.7812754,5.61498467 35.5965447,5.81735797 36.1228221,6.45070579 L36.8116166,7.27950882 L39.5885509,0.0162689275 L25.2796379,3.74664279 L10.97087,7.47709267 L5.48538788,21.8245382 L-2.17559874e-05,36.1719838 L7.24363426,34.2835718 L6.5548397,33.4546928 C6.0323334,32.8260584 5.94987821,31.9603842 6.34351654,31.2358087 M7.94047854,32.1892135 C14.1510152,20.7566428 23.1603147,12.6917401 34.7371107,7.71618508 C36.8391742,10.2454712 38.9410927,12.7746812 41.0430837,15.3040433 C29.4359743,20.2427271 20.4873015,28.3810681 14.2464515,39.7771477 C12.1444605,37.2477096 10.0424695,34.7184996 7.94047854,32.1892135" id="Fill-8" fill="#FFFFFF" mask="url(#mask-4)"></path>
            </g>
            <path d="M33.4137519,27.0539703 C34.8870347,26.6011585 36.623789,26.6764117 38.6167002,27.2888517 L36.9097838,29.0763068 L35.3547366,30.7048178 L27.2620017,39.1797037 C26.6831319,37.0861427 26.6031779,35.2675981 27.0193877,33.7501426 C27.4348009,32.2337513 28.2543293,30.8271994 29.4539289,29.5670493 C30.6110892,28.3508349 31.9405416,27.506326 33.4137519,27.0539703 M42.6829113,16.5768915 C31.5208556,21.3322137 22.9302188,29.1538404 16.9299032,40.1239421 C16.6501367,40.6349802 16.2256708,40.9809172 15.7060422,41.127471 C15.836909,41.8717182 16.0016692,42.6116326 16.20083,43.3469863 C16.3947039,44.0621203 16.6207333,44.7730736 16.8793526,45.4789341 C17.1413033,46.193156 17.4343231,46.8844218 17.7588466,47.5517434 C17.9362083,47.9166838 18.1229849,48.2744788 18.3188866,48.6251286 L17.7588466,49.2129403 L14.5648148,52.5655112 L17.7588466,55.9180062 L21.413845,59.7540984 L25.1303297,55.8535468 L34.1712871,46.4478008 L50.7664485,29.0695416 C51.96431,27.8151685 52.7327085,26.4885066 52.9210784,24.9841254 C53.1097379,23.4801243 52.6604312,22.1536145 51.5860494,21.0255757 C49.5953832,18.9373356 47.2707063,17.3667467 44.6427257,16.3407939 C44.2693174,16.1951522 43.8940985,16.0594683 43.5168518,15.9344262 C43.3041481,16.2136234 43.0227158,16.432162 42.6829113,16.5768915" id="Fill-11" fill="#FFFFFF"></path>
            <path d="M126.84148,75.5814744 C126.84148,75.5814744 126.979555,76.2146846 127.100015,76.5769281 L127.681188,78.2954736 L125.963763,78.2954736 L126.546252,76.5769281 C126.674898,76.2146846 126.822914,75.5814744 126.822914,75.5814744 L126.84148,75.5814744 Z M128.53164,80.891393 L129.759259,80.891393 L127.450648,74.4692627 L126.204317,74.4692627 L123.895121,80.891393 L125.124056,80.891393 L125.677818,79.2452522 L127.977147,79.2452522 L128.53164,80.891393 Z M112.08432,80.891393 L113.275977,80.891393 L113.552493,77.3000199 C113.580488,76.875432 113.561922,76.2964886 113.561922,76.2964886 L113.580488,76.2964886 C113.580488,76.2964886 113.783179,76.9296988 113.93982,77.3000199 L114.993401,79.7879198 L116.036969,79.7879198 L117.098664,77.3000199 C117.255963,76.9296988 117.449882,76.3052271 117.449882,76.3052271 L117.467864,76.3052271 C117.467864,76.3052271 117.449882,76.875432 117.477293,77.3000199 L117.75454,80.891393 L118.936694,80.891393 L118.409684,74.4692627 L117.135358,74.4692627 L115.851821,77.6441255 C115.703878,78.023846 115.528598,78.5845782 115.528598,78.5845782 L115.510617,78.5845782 C115.510617,78.5845782 115.325323,78.023846 115.17738,77.6441255 L113.894428,74.4692627 L112.619517,74.4692627 L112.08432,80.891393 Z M103.079977,77.481105 L103.079977,75.4728674 L103.985542,75.4728674 C104.91808,75.4728674 105.185897,75.853102 105.185897,76.4682477 C105.185897,77.1101964 104.788703,77.481105 104.151028,77.481105 L103.079977,77.481105 Z M101.888905,80.891393 L103.079977,80.891393 L103.079977,78.4940356 L104.224926,78.4940356 L105.527832,80.891393 L106.857345,80.891393 L105.50912,78.4940356 C105.37989,78.2679363 105.287279,78.1779813 105.287279,78.1779813 L105.287279,78.1599168 C105.980359,77.8882893 106.395535,77.173936 106.395535,76.4045815 C106.395535,75.5546715 105.980359,74.9395257 105.324484,74.6497603 C105.038027,74.5236763 104.714804,74.4692627 104.004254,74.4692627 L101.888905,74.4692627 L101.888905,80.891393 Z M90.8065622,77.6347262 C90.8065622,76.3689667 91.7676795,75.4278532 92.9678884,75.4278532 C94.168755,75.4278532 95.1285566,76.3689667 95.1285566,77.6347262 C95.1285566,78.9554867 94.168755,79.9328026 92.9678884,79.9328026 C91.7676795,79.9328026 90.8065622,78.9554867 90.8065622,77.6347262 Z M89.578943,77.6347262 C89.578943,79.5256182 91.0384174,81 92.9678884,81 C94.8980171,81 96.3574915,79.5256182 96.3574915,77.6347262 C96.3574915,75.7988352 94.8980171,74.3606557 92.9678884,74.3606557 C91.0384174,74.3606557 89.578943,75.7988352 89.578943,77.6347262 Z M80.8245088,80.891393 L82.0154346,80.891393 L82.0154346,78.2954736 L84.1853859,78.2954736 L84.1853859,77.2912814 L82.0154346,77.2912814 L82.0154346,75.4728674 L84.5920096,75.4728674 L84.5920096,74.4692627 L80.8245088,74.4692627 L80.8245088,80.891393 Z M72.743127,75.5814744 C72.743127,75.5814744 72.881787,76.2146846 73.0023926,76.5769281 L73.5835656,78.2954736 L71.8661413,78.2954736 L72.4484838,76.5769281 C72.577276,76.2146846 72.7251458,75.5814744 72.7251458,75.5814744 L72.743127,75.5814744 Z M74.4332871,80.891393 L75.6614911,80.891393 L73.3530261,74.4692627 L72.1066948,74.4692627 L69.7974257,80.891393 L71.0257028,80.891393 L71.5801963,79.2452522 L73.8793783,79.2452522 L74.4332871,80.891393 Z M62.4651147,80.891393 L63.6567714,80.891393 L63.6567714,75.4728674 L65.8080105,75.4728674 L65.8080105,74.4692627 L60.3132908,74.4692627 L60.3132908,75.4728674 L62.4651147,75.4728674 L62.4651147,80.891393 Z M53.4054385,75.5814744 C53.4054385,75.5814744 53.5440253,76.2146846 53.664704,76.5769281 L54.245877,78.2954736 L52.5284528,78.2954736 L53.1102105,76.5769281 C53.2389296,76.2146846 53.3868725,75.5814744 53.3868725,75.5814744 L53.4054385,75.5814744 Z M55.0955986,80.891393 L56.3238756,80.891393 L54.0152644,74.4692627 L52.7690062,74.4692627 L50.4598103,80.891393 L51.6880142,80.891393 L52.241923,79.2452522 L54.541836,79.2452522 L55.0955986,80.891393 Z M41.7698452,80.891393 L45.7958806,80.891393 L45.7958806,79.8872008 L42.9609172,79.8872008 L42.9609172,74.4692627 L41.7698452,74.4692627 L41.7698452,80.891393 Z M32.9688498,77.6622634 L32.9688498,75.4728674 L34.1043702,75.4728674 C34.7789577,75.4728674 35.1853621,75.8981162 35.1853621,76.5587902 C35.1853621,77.2282762 34.7789577,77.6622634 34.086389,77.6622634 L32.9688498,77.6622634 Z M31.7777778,80.891393 L32.9688498,80.891393 L32.9688498,78.6751207 L34.3083764,78.6751207 C35.5359956,78.6751207 36.3950001,77.8071461 36.3950001,76.5587902 C36.3950001,75.3105077 35.5359956,74.4692627 34.3083764,74.4692627 L31.7777778,74.4692627 L31.7777778,80.891393 Z" id="Fill-13" fill="#FFFFFF"></path>
        </g>
    </g>
</svg>